<?xml version="1.0" standalone="no"?>
<!DOCTYPE svg PUBLIC "-//W3C//DTD SVG 20010904//EN"
 "http://www.w3.org/TR/2001/REC-SVG-20010904/DTD/svg10.dtd">
<svg version="1.0" xmlns="http://www.w3.org/2000/svg"
 width="700.000000pt" height="700.000000pt" viewBox="0 0 700.000000 700.000000"
 preserveAspectRatio="xMidYMid meet">
<metadata>
Created by potrace 1.11, written by Peter Selinger 2001-2013
</metadata>
<g transform="translate(0.000000,700.000000) scale(0.100000,-0.100000)"
fill="#000000" stroke="none">
<path d="M3329 6496 c-2 -2 -35 -6 -74 -9 -230 -18 -485 -91 -720 -206 -662
-324 -1161 -1042 -1444 -2075 -36 -129 -104 -420 -117 -496 -11 -62 -25 -137
-29 -160 -3 -14 -8 -45 -11 -70 -3 -25 -9 -63 -14 -85 -5 -22 -12 -71 -15
-110 -4 -38 -8 -81 -10 -93 -30 -186 -24 -727 10 -922 3 -14 7 -41 10 -60 5
-32 19 -108 31 -170 22 -109 102 -375 129 -427 8 -15 15 -31 15 -35 0 -14 85
-185 128 -258 125 -212 268 -376 447 -509 208 -156 398 -238 665 -287 139 -26
437 -25 585 1 135 24 134 23 94 48 -105 63 -172 107 -234 156 -216 169 -404
401 -539 664 -57 113 -55 115 29 32 299 -300 662 -487 1032 -532 83 -10 339
-10 410 0 115 16 314 66 365 93 15 8 28 12 28 9 0 -7 192 90 267 135 145 89
356 269 469 401 47 55 114 136 131 158 23 30 13 0 -34 -97 -86 -178 -215 -379
-330 -513 -51 -59 -198 -206 -253 -254 -70 -60 -238 -181 -313 -225 -42 -24
-73 -48 -69 -51 4 -4 27 -10 52 -13 25 -3 56 -8 70 -11 100 -20 404 -27 505
-12 28 4 68 10 89 12 154 21 419 123 561 216 384 253 652 665 789 1214 14 55
27 114 30 130 3 17 12 71 20 120 30 184 40 317 40 550 0 167 -8 347 -19 440
-2 16 -6 50 -9 75 -4 25 -8 65 -11 90 -6 54 -43 269 -55 325 -5 22 -12 56 -15
75 -36 218 -174 703 -272 955 -35 91 -43 111 -104 245 -45 101 -148 301 -165
321 -8 8 -14 19 -14 23 0 17 -172 269 -249 364 -74 92 -249 275 -312 327 -232
190 -452 315 -698 395 -120 39 -265 73 -361 85 -30 4 -59 9 -64 12 -10 7 -441
15 -447 9z m-709 -1876 c31 -61 135 -161 232 -224 48 -31 90 -56 93 -56 2 0
33 -14 67 -31 153 -74 502 -189 728 -239 44 -9 216 -49 250 -57 14 -3 34 -8
44 -10 181 -34 394 -122 543 -225 151 -104 318 -298 402 -467 112 -224 172
-489 168 -746 -2 -125 -4 -134 -41 -230 -127 -329 -318 -606 -581 -843 -66
-61 -210 -172 -221 -172 -4 0 -15 -6 -23 -14 -9 -7 -43 -28 -75 -45 -33 -17
-64 -35 -70 -40 -36 -28 -264 -103 -381 -126 -16 -3 -41 -8 -55 -11 -56 -14
-337 -12 -425 2 -374 60 -738 275 -1000 589 -27 33 -52 62 -55 65 -10 9 -95
122 -173 231 -42 59 -79 120 -82 135 -14 69 -36 193 -41 234 -3 25 -8 52 -9
61 -2 8 -6 55 -10 105 -4 49 -9 100 -11 114 -4 34 -4 454 1 510 2 25 6 81 10
125 44 555 264 1080 550 1312 40 32 132 92 142 93 2 0 12 -18 23 -40z"/>
<path d="M2154 3245 c-12 -19 -15 -36 -9 -72 15 -105 86 -192 191 -239 49 -21
54 -27 48 -47 -17 -53 -24 -96 -24 -159 0 -81 23 -115 82 -125 33 -5 41 -2 68
27 27 29 30 39 30 96 0 77 22 137 56 153 86 39 144 -26 144 -161 0 -70 26
-106 82 -115 32 -5 41 -1 69 26 l32 32 -6 92 c-10 186 -89 298 -227 322 -75
13 -118 8 -166 -20 l-47 -28 -55 18 c-77 24 -129 75 -147 145 -8 30 -22 61
-32 67 -29 22 -71 16 -89 -12z"/>
<path d="M4751 3251 c-10 -10 -21 -35 -25 -56 -11 -59 -46 -103 -103 -131 -56
-28 -123 -42 -123 -26 0 17 -78 42 -128 42 -176 0 -278 -115 -290 -327 l-5
-92 31 -30 c41 -41 83 -42 123 -2 25 26 29 37 29 87 0 112 38 175 104 172 66
-2 96 -53 96 -158 0 -66 2 -74 29 -101 37 -36 79 -38 118 -5 26 22 28 30 30
104 1 44 -4 103 -12 131 l-13 51 63 31 c109 54 177 146 179 243 1 32 -5 60
-13 69 -18 23 -67 21 -90 -2z"/>
<path d="M3863 2002 c-12 -2 -43 -26 -70 -53 -60 -62 -98 -86 -171 -108 -159
-48 -318 -7 -414 109 -45 55 -95 65 -131 26 -34 -36 -38 -69 -15 -116 43 -85
180 -181 308 -214 80 -20 237 -14 322 13 119 38 255 151 277 229 17 59 -43
125 -106 114z"/>
</g>
</svg>
